<svg width="20" height="20" viewBox="0 0 20 20" fill="none" xmlns="http://www.w3.org/2000/svg">
<g id="Mode switch">
<g id="Vector">
<path d="M9.99967 13.3333C11.8406 13.3333 13.333 11.841 13.333 10C13.333 8.15905 11.8406 6.66667 9.99967 6.66667C8.15873 6.66667 6.66634 8.15905 6.66634 10C6.66634 11.841 8.15873 13.3333 9.99967 13.3333Z" fill="#D8DBFD"/>
<path d="M9.99967 3.33334H10.008H9.99967Z" fill="#D8DBFD"/>
<path d="M16.6663 10H16.6747H16.6663Z" fill="#D8DBFD"/>
<path d="M9.99967 16.6667H10.008H9.99967Z" fill="#D8DBFD"/>
<path d="M3.33301 10H3.34134H3.33301Z" fill="#D8DBFD"/>
<path d="M14.7138 5.28584H14.7222H14.7138Z" fill="#D8DBFD"/>
<path d="M14.7138 14.7142H14.7222H14.7138Z" fill="#D8DBFD"/>
<path d="M5.28551 14.7142H5.29384H5.28551Z" fill="#D8DBFD"/>
<path d="M5.28551 5.28584H5.29384H5.28551Z" fill="#D8DBFD"/>
<path d="M9.99967 3.33334H10.008M16.6663 10H16.6747M9.99967 16.6667H10.008M3.33301 10H3.34134M14.7138 5.28584H14.7222M14.7138 14.7142H14.7222M5.28551 14.7142H5.29384M5.28551 5.28584H5.29384M13.333 10C13.333 11.841 11.8406 13.3333 9.99967 13.3333C8.15873 13.3333 6.66634 11.841 6.66634 10C6.66634 8.15905 8.15873 6.66667 9.99967 6.66667C11.8406 6.66667 13.333 8.15905 13.333 10Z" stroke="#D8DBFD" stroke-width="2" stroke-linecap="round" stroke-linejoin="round"/>
</g>
</g>
</svg>
